<?xml version="1.0" encoding="UTF-8"?>
<svg width="128pt" height="128pt" version="1.1" viewBox="0 0 128 128" xmlns="http://www.w3.org/2000/svg">
 <g fill="#682079">
  <path d="m125.93 0.34766c-1.8125-0.85156-3.9688-0.078125-4.832 1.7266l-23.277 49.188-9.8359-4.6562-0.066407-0.03125c-0.42187-0.19141-0.875-0.29688-1.3398-0.3125-1.4727-0.11328-2.8672 0.69922-3.4922 2.0391-7.7891 16.371-20.645 29.793-36.66 38.281l-6.4336 3.418c-1.0078 0.51562-1.707 1.4844-1.875 2.6016-0.19531 1.1133 0.14062 2.2539 0.91016 3.082 17.75 19.156 42.203 30.73 68.273 32.312 1.125 0.066406 2.2227-0.39453 2.957-1.25 0.75781-0.83984 1.0664-1.9961 0.82812-3.1016l-1.4375-7.1406c-3.5898-17.77-1.3594-36.219 6.3594-52.621 0.64062-1.332 0.38281-2.9258-0.63672-3.9922-0.30469-0.35156-0.67578-0.63672-1.0898-0.83984l-0.066406-0.03125-9.8359-4.6523 23.277-49.188c0.85156-1.8125 0.078125-3.9727-1.7266-4.832zm-23.391 117.61 0.47266 2.3906c-15.77-1.7656-30.84-7.4766-43.82-16.605 5.5977-3.3516 10.832-7.2773 15.613-11.719 1.4688-1.3633 1.5547-3.6562 0.19141-5.125-1.3672-1.4688-3.6602-1.5547-5.1289-0.19141-4.4922 4.168-9.4141 7.8477-14.676 10.98-0.66406 0.42188-1.4062 0.90625-2.1094 1.3516-1.8633-1.5625-3.668-3.1797-5.4219-4.8906l2.1484-1.1484c11.93-6.3086 22.312-15.188 30.402-25.988l23.152 10.957c-3.2266 13.102-3.5078 26.762-0.82422 39.988zm5.4258-53.867c-0.94141 2.2422-1.8164 4.5195-2.5781 6.8047l-7.2148-3.4141-6.5586-3.1055-7.2148-3.4141c1.2852-2.0391 2.4922-4.1602 3.6289-6.3086l6.6875 3.168 6.5586 3.1055z"/>
  <path d="m53.051 120.55h-49.516c-1.9531 0-3.5352 1.5859-3.5352 3.5391 0 1.9531 1.582 3.5352 3.5352 3.5352h49.516c1.9531 0 3.5352-1.582 3.5352-3.5352 0-1.9531-1.582-3.5391-3.5352-3.5391z"/>
  <path d="m3.5352 113.48h28.297c1.9531 0 3.5352-1.5859 3.5352-3.5391s-1.582-3.5352-3.5352-3.5352h-28.297c-1.9531 0-3.5352 1.582-3.5352 3.5352s1.582 3.5391 3.5352 3.5391z"/>
  <path d="m3.5352 99.328h17.684c1.9531 0 3.5391-1.582 3.5391-3.5352s-1.5859-3.5391-3.5391-3.5391h-17.684c-1.9531 0-3.5352 1.5859-3.5352 3.5391s1.582 3.5352 3.5352 3.5352z"/>
 </g>
</svg>
